# xmcd
#
# Track frame offsets:
#	150
#	9957
#	22913
#	34645
#	48017
#	61849
#	71351
#	81095
#	91751
#	102952
#	115807
#	130424
#	143584
#	153712
#	165563
#	175110
#
# Disc length: 2497 seconds
#
# Revision: 0
# Processed by: cddbd v1.5.2PL0 Copyright (c) Steve Scherf et al.
# Submitted via: EasyCDDAExtractor 9.0.0.1
#
DISCID=b709bf10
DTITLE=Hank Snow - The Great Hank Snow Disc 1
DYEAR=2005
DGENRE=Country
TTITLE0=Just Keep A Movin'
TTITLE1=Blossoms In The Springtime
TTITLE2=The Bill Is Falling Due
TTITLE3=I Don't Hurt Anymore
TTITLE4=When It's Reveille Time In Heaven
TTITLE5=The Alphabet
TTITLE6=My Reglion's Not Old Fashoined (But It's Real Genuine)
TTITLE7=Hilo March (Instrumental)
TTITLE8=Washbash Blues (Instrumental)
TTITLE9=Stolen Moments
TTITLE10=Invisible Hands
TTITLE11=I'm Glad Im On The Inside Looking Out
TTITLE12=Would You Mind?
TTITLE13=The Next Voice You Hear
TTITLE14=For Now And Always
TTITLE15=Between Fire And Water
EXTD=
EXTT0=
EXTT1=
EXTT2=
EXTT3=
EXTT4=
EXTT5=
EXTT6=
EXTT7=
EXTT8=
EXTT9=
EXTT10=
EXTT11=
EXTT12=
EXTT13=
EXTT14=
EXTT15=
PLAYORDER=
